<?xml version="1.0" encoding="UTF-8" standalone="no"?>
<svg width="512" height="512" viewBox="0 0 512 512" version="1.1" id="svg1" xmlns="http://www.w3.org/2000/svg" xmlns:svg="http://www.w3.org/2000/svg">
    <defs id="defs1" />
    <rect style="fill:#ffffff;stroke-width:2;stroke-linecap:round;stroke-linejoin:round" id="rect1" width="512" height="512" x="0" y="0" rx="60" ry="60" />
    <path fill="#000" d="M140.7 0C80.9 60.2 78.2 195.7 78.2 195.7S0 266.3 0 296.7c0 2.8 27.3 33 19.9 58.3-4.5 15.2 48.6 15.8 60.6 27.7 5.9 5.8-10.7 14.6-5 20.5 7 7.2 36.5 11.4 43.2 18.5 45.2 47.5 81.5 90.3 81.5 90.3h111.6s36.3-42.8 81.5-90.3c6.7-7 36.1-11.3 43.1-18.5 5.8-5.9-10.8-14.7-4.9-20.5 12-11.9 65-12.5 60.6-27.7-7.4-25.4 19.9-55.5 19.9-58.3 0-30.4-78.2-101-78.2-101S431 60.2 371.3 0c-6.6 59.8-75.6 147.7-75.6 147.7a374 374 0 0 0-79.4 0s-69-88-75.6-147.7Zm-6.8 82.1c13.2 29.5 46.2 77.7 46.2 77.7-38.3 8.6-62 19.2-62 19.2s-.4-70.8 15.8-96.9Zm244.2 0c16.2 26.1 15.7 96.9 15.7 96.9s-23.6-10.6-62-19.2c0 0 33-48.2 46.3-77.7ZM165.4 227s70.6 33.8 90.6 53c18.7-18.4 90.6-53.1 90.6-53.1s45.1 13.6 70.4 23.3c12.4 4.7 47.7 39.5 38 48.6-25.3 23.8-94.6 39.4-114 58-4.4 4.2 40 4.4 34.8 7.7-20.8 13-28.7 14-43.9 19-7.7 2.4 20.2 7.2 5.5 23.8-23.8 22.4-33 62.4-70.9 59.6 0 0 33-46.6 10.1-56.3-14-2.9-28-2.9-41.2 0-23 9.7 10 56.3 10 56.3-37.8 2.8-47-37.2-70.8-59.6-14.7-16.6 13.2-21.4 5.5-23.9-15.2-4.9-23-5.9-44-19-5.1-3.2 39.3-3.4 34.9-7.6-19.4-18.6-88.7-34.2-114-58-9.7-9 25.6-43.9 38-48.6a1340 1340 0 0 1 70.4-23.3Zm20.6 44.5c-15.4 4.7-34.4 5.9-52.7 8l33.2 30.5 63.8-4c-6.4-12-44.3-34.5-44.3-34.5Zm140 0s-38 22.5-44.3 34.4l63.8 4 33.2-30.4c-18.3-2.2-37.3-3.4-52.7-8.1Z" id="path1" />
</svg>
