<svg xmlns="http://www.w3.org/2000/svg" xmlns:xlink="http://www.w3.org/1999/xlink" preserveAspectRatio="xMidYMax slice" width="650" height="1000">
	<defs>
		<linearGradient id="linearGradient21733">
			<stop offset="0" stop-color="#c7d294" stop-opacity=".5"/>
			<stop offset="1" stop-color="#fff" stop-opacity="0"/>
		</linearGradient>
		<linearGradient id="linearGradient21723">
			<stop offset="0" stop-color="#c7d294" stop-opacity=".5"/>
			<stop offset="1" stop-color="#fff" stop-opacity="0"/>
		</linearGradient>
		<linearGradient xlink:href="#linearGradient21723" id="linearGradient21725" x1="540.6" x2="551.5" y1="770.2" y2="828.5" gradientUnits="userSpaceOnUse" href="#linearGradient21723"/>
		<radialGradient xlink:href="#linearGradient21733" id="radialGradient21735" cx="698.7" cy="828.6" r="119.6" fx="698.7" fy="828.6" gradientTransform="matrix(.98616 0 0 .13724 -51 702.9)" gradientUnits="userSpaceOnUse"/>
	</defs>
	<g id="camperAnimation_camperSVG" transform="translate(-1103.2 428) scale(.88105)">
		<g id="camperAnimation_camperWheelsSVG">
			<path fill="#706f6f" d="M1641.6 432.9h67.4l4.7-3.5v-29.2h-72.1V433"/>
			<path fill="#212121" d="M1359 404.2a25.2 25.2 0 1 0 0 50.3 25.2 25.2 0 0 0 0-50.3zm319.7 0a25.2 25.2 0 1 0 0 50.4 25.2 25.2 0 0 0 0-50.4zm-319.8 9.7a15.5 15.5 0 1 1 0 31 15.5 15.5 0 0 1 0-31zm319.8 0a15.5 15.5 0 1 1 0 31 15.5 15.5 0 0 1 0-31z"/>
			<path fill="#9b9b9b" d="M1359 413.3a16 16 0 1 0 0 32.1 16 16 0 0 0 0-32.1zm319.7 0a16 16 0 1 0 0 32.1 16 16 0 0 0 0-32.1z"/>
			<path fill="#fff" d="M1359 419.5a9.8 9.8 0 1 0 0 19.5 9.8 9.8 0 0 0 0-19.5zm320 0a9.8 9.8 0 1 0 0 19.5 9.8 9.8 0 0 0 0-19.5z"/>
		</g>
		<g id="camperAnimation_camperBodySVG" class="camperAnimation_camperBodySVG">
			<ellipse cx="638" cy="816.6" fill="url(#radialGradient21735)" rx="117.9" ry="16.4" transform="translate(1130.9 -485.8) scale(1.135)"/>
			<path fill="#e6332a" d="M1258.6 403.8c-5.8.3-5.8-19-.1-19 .5 3.5.6 15.4 0 19"/>
			<path fill="#ededed" d="m1257.4 384.6 1.2-.3 2.6-.8c-.1 0-.3.5-.4 1.2-.6 3.7-.6 15.5.1 19.1.1.7.3 1.2.5 1.2l-2.7-.7-1.2-.3a74 74 0 0 1 0-19.4"/>
			<path fill="#ededed" d="M1626.1 303.7h15.8c27.1-.1 32.3-2.2 42.2 10.6l27.4 51.6 1.6 2.2 17.5 11.5a9.8 9.8 0 0 1 2.7 6.7V407l.1 3.5v14a7.6 7.6 0 0 1-5.3 7.3l-20.6 2.8-4.8-16.4c-1.4-4.9-6-8.3-11-8.3h-25.8c-5.2 0-9.6 2.7-11.1 8.3l-5.2 17.8-31.7.1V312c0-4.5 3.7-8.3 8.2-8.3"/>
			<path fill="#b2b2b2" d="M1612.8 312h5v124h-5V312"/>
			<path fill="#ededed" d="M1260.2 266.7v169.4h71.9l4.6-15c1.4-4.8 6-8 11.2-8h22.2c5.1 0 9.7 3.2 11.1 8l4.6 15h227V312.8a13 13 0 0 1 13-13h62a9 9 0 0 0 8.3-12.4l-10.6-26.3a26.9 26.9 0 0 0-24.7-16.7h-378.3c-12.3 0-22.3 10-22.3 22.3"/>
			<path fill="#ffe697" d="M1733 386c4.6-.3 4.6 18.1 0 18.2-.4-3.4-.5-14.8 0-18.2"/>
			<path fill="#e94e1b" d="M1730.6 386h2.6l-.3.9a103 103 0 0 0 .4 17.3h-2.6c-.7-6.4-.8-12.5-.1-18.2"/>
			<path fill="#c6c6c6" d="M1260.2 386v50h71.9l4.6-15c1.4-4.7 6-8 11.2-8h22.2c5.1 0 9.7 3.3 11.1 8l4.6 15h227v-50h-352.6"/>
			<path fill="#c6c6c6" d="M1402 242.4h60c0-2.6-2-4.7-4.6-4.7h-50.8c-2.5 0-4.6 2-4.6 4.6"/>
			<path fill="#b2b2b2" d="M1404.7 242.4h54.6v2h-54.6v-2"/>
			<path fill="#706f6f" d="M1284.5 251.8c-.8 0-1.5.7-1.5 1.5v10.5a1.6 1.6 0 0 0 3.1 0v-10.5c0-.8-.7-1.5-1.6-1.5zm5.4 0c-.9 0-1.6.7-1.6 1.5v10.5a1.6 1.6 0 0 0 3.2 0v-10.5c0-.8-.7-1.5-1.6-1.5zm5.4 0c-1 0-1.6.7-1.6 1.5v10.5a1.6 1.6 0 0 0 3.1 0v-10.5c0-.8-.7-1.5-1.5-1.5zm5.3 0c-.9 0-1.5.7-1.5 1.5v10.5a1.6 1.6 0 0 0 3 0v-10.5c0-.8-.6-1.5-1.5-1.5zm5.4 0c-.9 0-1.6.7-1.6 1.5v10.5a1.6 1.6 0 0 0 3.1 0v-10.5c0-.8-.7-1.5-1.5-1.5zm5.3 0c-.8 0-1.5.7-1.5 1.5v10.5a1.6 1.6 0 0 0 3 0v-10.5c0-.8-.6-1.5-1.5-1.5z"/>
			<path fill="#e94e1b" d="M1260.2 269.8v5H1659c1.5 0 2.8-1.1 2.8-2.5s-1.3-2.5-2.8-2.5zm0 104.2v3.2h352.6V374Zm0 9.5v5h352.6v-5z"/>
			<path fill="#fff" d="M1423 279.5a8 8 0 0 0-8.3 7.8v121.9a8 8 0 0 0 8.2 7.8h43a8 8 0 0 0 8.1-7.8V287.3a8 8 0 0 0-8.2-7.8zm0 3.4h42.8c2.7 0 4.9 2 4.9 4.4v121.9c0 2.5-2.2 4.5-4.9 4.5H1423c-2.7 0-4.8-2-4.8-4.5V287.3c0-2.4 2.1-4.4 4.8-4.4zm13.6 3.9c-3.7 0-6.7 3-6.7 6.7v53.9c0 3.7 3 6.7 6.7 6.7h17c3.7 0 6.7-3 6.7-6.7v-53.9c0-3.7-3-6.7-6.7-6.7zm-126.6.7a12 12 0 0 0-12 12v36.1a12 12 0 0 0 12 12h80a12 12 0 0 0 12-12v-36.1a12 12 0 0 0-12-12zm193 0a12 12 0 0 0-12 12v26.1a12 12 0 0 0 12 12h80a12 12 0 0 0 12-12v-26.1a12 12 0 0 0-12-12zm-66.4 2.6h17c1.8 0 3.3 1.6 3.3 3.4v53.9c0 1.9-1.5 3.4-3.3 3.4h-17a3.4 3.4 0 0 1-3.4-3.4v-53.9c0-1.8 1.5-3.4 3.4-3.4zm195.7 24.4a8.6 8.6 0 0 0-8.6 8.5v97c0 4 3.3 7.2 7.3 7.2h10c3.6 0 6.7-2.4 7.6-5.8 3-11.4 6.6-15 15.3-16 4-.3 6.8-3.8 6.8-7.7v-73.5c0-5.9-3.8-9.7-8.5-9.7z"/>
			<path fill="#0d5e6a" d="M1436.6 290.5a5 5 0 0 0-5 5v51.9a5 5 0 0 0 5 5h17a5 5 0 0 0 5-5v-51.9a5 5 0 0 0-5-5zm-126.6.6a8.4 8.4 0 0 0-8.4 8.4v36.1c0 4.7 3.8 8.4 8.4 8.4h80c4.6 0 8.4-3.7 8.4-8.4v-36.1c0-4.7-3.8-8.4-8.4-8.4zm193 0a8.4 8.4 0 0 0-8.4 8.4v26.1c0 4.7 3.8 8.4 8.4 8.4h80c4.6 0 8.4-3.7 8.4-8.4v-26.1c0-4.7-3.8-8.4-8.5-8.4zm174.2 23.2a3 3 0 0 0-3 3.1V359a7 7 0 0 0 7 7h30.3c-8.5-17.2-16.7-39.3-27.4-51.6zm-44.2 3.2c-3.5 0-6.3 3.1-6.3 7v35.3c0 3.8 2.8 7 6.3 7h28.5c3.5 0 6.3-3.2 6.3-7v-35.3c0-3.9-2.8-7-6.3-7z"/>
			<path fill="#878787" d="M1685.9 370c.3 0 .6 0 .8-.3.7-.4 1-1.4.5-2.1l-6.8-10.6a1.6 1.6 0 0 0-2.7 1.7l6.8 10.6c.3.4.8.7 1.4.7"/>
			<path fill="#878787" d="M1685.6 378.2c.3 0 .6-.1.8-.3.8-.5 1-1.4.5-2.2l-6.8-10.5a1.6 1.6 0 0 0-2.6 1.7l6.8 10.5c.3.5.8.8 1.3.8"/>
			<path fill="#706f6f" d="M1675.9 344.3v32.5c3.5 0 6.3-2.4 6.3-5.2v-22.1c0-2.9-2.8-5.2-6.2-5.2zM1254.2 411c-.3 0-.7.2-.8.6a22.6 22.6 0 0 0 0 15c.2.4.5.6.8.6h12.5a4 4 0 0 0 3.9-3.9v-4.6c0-4.2-3.5-7.7-7.7-7.7zm458.5 0a7.7 7.7 0 0 0-7.7 7.7v4.6c0 2.1 1.7 3.9 3.9 3.9h26.5c.3 0 .6-.2.7-.5 1.7-5 1.8-10 0-15.1a.8.8 0 0 0-.7-.6z"/>
			<path fill="url(#linearGradient21725)" d="M530.7 768v16l20.8 44.5 204.5-12z" transform="translate(1130.9 -485.8) scale(1.135)"/>
		</g>
	</g>
</svg>
