<svg viewBox="0 0 24 24" width="24" height="24" xmlns="http://www.w3.org/2000/svg">
	<path id="path1" fill="#000000"
		d="M 11.0296,22.0909 C 11.0296,22.0909 12.0039,23.5273 12.3164,23.2545 12.8495,22.6545 13.5849,22.8909 13.8054,22.1455 15.607,21.9636 16.1033,22.3636 16.1033,22.1818 16.0665,21.6364 14.8164,21.6909 14.7981,20.1455 14.7062,19.5818 14.7062,19.0182 14.6878,18.4909 16.3239,17.8727 18.0335,17.5091 19.7798,17.3636 20.5519,17.3091 21.3423,17.2727 22.1144,17.2727 22.1696,16.8364 22.1144,16.3636 22.2615,16 22.7946,14.9091 23.4012,13.8364 23.8792,12.7091 24.0814,12.4 24.063,11.8 23.5666,11.8 L 18.3643,10.5273 C 17.9967,10.3636 17.5738,10.3636 17.3165,10.1273 17.1878,9.70909 17.7394,9.16364 17.2062,8.94545 16.14,8.21818 15.0738,7.49091 14.026,6.72727 13.7871,6.49091 13.3458,6.36364 13.2539,6 A 14.8716,14.7091 0 0 1 12.5554,1.69091 C 12.5921,1.32727 12.2245,1.89091 12.0591,1.94545 L 11.048,2.67273 A 14.3385,14.1818 0 0 1 10.7906,0 C 9.68769,0.636364 8.41928,1.27273 7.72073,2.36364 A 9.37518,9.27273 0 0 0 6.74646,4.98182 C 6.58101,5.70909 6.2685,6.47273 5.58834,6.89091 4.90819,7.38182 4.11773,7.61818 3.45595,8.14545 3.23536,8.23636 2.72064,8.65455 3.23536,8.70909 3.60301,8.81818 4.11773,8.56364 4.37508,8.85455 4.26479,9.25455 3.89714,9.45455 3.69493,9.81818 A 11.526,11.4 0 0 1 1.15811,12.4545 3.67654,3.63636 0 0 1 0,13.0545 C 0.845605,13.3636 1.67283,13.7818 2.57357,13.9091 1.52576,14.5455 1.70959,15.7455 1.30517,16.6 L 4.98171,15.9273 4.43023,20.7636 7.07734,19.3455 9.19135,24 10.57,23.5818 Z M 9.83474,2.01818 C 10.0737,2.38182 9.98181,2.98182 10.1289,3.4 A 4.65082,4.6 0 0 0 11.6547,6 C 10.4965,6.21818 9.26489,6.30909 8.12515,6.63636 7.57368,6.6 8.08839,5.90909 8.08839,5.6 8.27222,4.72727 8.41928,3.78182 8.87885,3 9.11782,2.65455 9.3568,2.32727 9.68769,2.05455 H 9.76122 Z M 14.1179,8.54545 C 14.4856,8.78182 14.8532,9.03636 15.1841,9.30909 15.4598,9.52727 15.9562,9.63636 15.8827,10.0727 15.9378,10.3273 15.7356,10.5273 15.4782,10.3091 15.0003,10.0909 14.5591,9.83636 14.0444,9.76364 13.6216,9.89091 13.2171,10.0909 12.7943,10.1818 12.5002,10.3091 11.9672,10.3818 11.8385,10.4727 A 6.43395,6.36364 0 0 1 13.1987,11.2 C 13.7319,11.2545 14.3018,11.1455 14.8164,11.1091 15.2392,11.0727 15.6437,10.9455 16.0114,11 17.3532,11.4909 18.7687,11.8182 20.1475,12.1455 20.5151,12.1818 20.8644,12.4182 21.0114,12.7636 21.3423,13.1818 21.7283,13.4909 22.0593,13.9455 A 6.25012,6.18182 0 0 1 21.5445,15.2545 C 20.5335,15.1455 19.5224,15.1091 18.493,15.1091 17.2613,15.1091 15.9378,15.2909 14.9084,16.0182 14.7429,16.1091 14.5223,16.4364 14.8716,16.2909 16.0114,16.0727 17.151,15.7455 18.3276,15.7455 19.1548,15.7091 19.9453,15.6727 20.7357,15.9091 20.8827,16.0909 20.2578,16.0182 20.1107,16.0727 18.6217,16.2182 17.0959,16.2727 15.6253,16.6727 14.9084,16.8545 14.2098,17.0727 13.5849,17.4545 13.2171,17.6909 13.5849,18.2545 13.493,18.6364 13.5665,19.6545 13.6032,19.0545 13.7687,20.0909 14.026,20.5273 13.493,20.6909 13.1804,20.8 12.7208,21.0545 12.3532,21.3818 11.8936,21.5818 11.526,21.6727 11.3421,21.1091 11.1215,20.8727 10.9009,20.6909 10.7539,20.1091 10.57,20.1091 10.3862,21.0545 10.1473,21.8909 9.74283,22.7273 9.17297,22.1091 8.23545,18.4364 7.50014,18 7.16926,17.9455 6.17659,18.5455 5.80893,18.6909 6.12145,18.0545 6.21335,17.8364 6.43395,17.1818 6.6913,16.4 6.87513,15.6182 7.16926,14.8182 7.40823,14.1818 6.52586,14.4182 6.12145,14.3455 5.34937,14.3455 4.52215,14.4182 3.80522,14.7091 3.60301,14.7636 3.32727,15.0182 3.21698,15 3.43757,14.4545 4.00743,14.1636 4.467,13.8364 A 5.14716,5.09091 0 0 1 6.39718,13.1091 C 6.59939,13.1091 6.87513,12.9818 6.52586,12.9091 6.23174,12.7636 5.64349,12.9091 5.51482,12.6545 5.82732,12.3455 6.30526,12.2909 6.67292,12.1091 7.81265,11.6909 9.06268,11.6182 10.2576,11.4909 10.0921,11.2 9.76122,10.9818 9.55901,10.6909 9.28327,10.4909 8.91561,10.0727 9.44871,9.96364 10.9193,9.21818 12.537,8.90909 14.1179,8.54545 Z M 22.2615,12.3636 C 22.8313,12.2727 22.574,12.9091 22.3718,13.1091 22.0409,13.2182 21.6548,12.8364 21.5813,12.5091 21.7099,12.2909 22.096,12.4182 22.3166,12.3455 Z M 11.9304,15.4909 C 11.3788,16.1636 10.8825,16.9455 10.9744,17.8364 11.2869,18.8 11.3788,18.8182 11.8936,19.7273 12.0775,18.5273 11.8936,18.3273 12.0223,17.1455 12.0223,16.6727 12.0958,16.1818 12.0958,15.6909 12.0958,15.5818 12.0407,15.4364 11.9304,15.5091 Z" />
</svg>