<svg viewBox="0 0 132 132" xmlns="http://www.w3.org/2000/svg">
    <path fill="currentColor" d="M 64.6023,132 C 66.091,130.913 83.9202,121.985 118.83,121.985 119.215,118.904 118.83,115.565 119.856,112.997 123.581,105.292 127.818,97.7163 131.156,89.7552 132.569,87.5722 132.44,83.3349 128.973,83.3349 L 92.6343,74.3466 C 90.0663,73.1909 87.1129,73.1909 85.3152,71.5216 84.4164,68.5684 88.2686,64.7161 84.5448,63.1753 77.0973,58.0391 69.6498,52.9029 62.3307,47.5099 60.6614,45.8406 57.5798,44.9417 56.9378,42.3737 53.8072,32.5288 52.1626,22.2719 52.0584,11.9417 52.3151,9.37357 49.747,13.3541 48.5914,13.7394 L 41.5291,18.8756 C 40.3343,12.6547 39.7324,6.33456 39.7314,0 32.0272,4.49417 23.1672,8.98835 18.2878,16.6926 15.0998,22.4776 12.8053,28.7116 11.4823,35.183 9.40553,44.4133 5.71622,47.5964 0,50.8325 V 132 Z M 33.0544,14.2529 C 34.7237,16.8211 34.0816,21.0585 35.1088,24.0117 36.5046,31.1532 40.2577,37.6194 45.7664,42.3737 37.677,43.9146 29.0738,44.5565 21.1127,46.8679 17.2605,46.6111 20.8559,41.7317 20.8559,39.5488 22.1399,33.3853 23.1672,26.7082 26.3773,21.1868 28.0466,18.7471 29.7158,16.4359 32.0272,14.5097 H 32.5408 Z M 62.9728,60.3504 C 65.5408,62.0196 68.109,63.8173 70.4202,65.7434 72.3463,67.2843 75.8133,68.0547 75.2996,71.1364 75.6849,72.9341 74.2724,74.3466 72.4748,72.8057 69.1362,71.2648 66.0545,69.4672 62.4592,68.9535 59.5058,69.8523 56.681,71.2648 53.7276,71.9069 51.6731,72.8057 47.9493,73.3193 47.0505,73.9613 50.4128,75.2851 53.6032,77.0097 56.5525,79.0975 60.2763,79.4828 64.2568,78.7123 67.8522,78.4555 70.8055,78.1987 73.6304,77.2999 76.1984,77.6851 85.5721,81.152 95.4592,83.4633 105.091,85.7746 107.658,86.0314 110.098,87.7007 111.125,90.1404 113.436,93.0937 116.133,95.2766 118.445,98.4867 117.601,101.695 116.395,104.796 114.849,107.731 107.787,106.961 100.725,106.705 93.5331,106.705 84.9301,106.705 75.6849,107.989 68.4942,113.125 67.3385,113.767 65.7977,116.078 68.2374,115.051 76.1984,113.51 84.1596,111.199 92.3775,111.199 98.1557,110.942 103.678,110.685 109.199,112.355 110.226,113.638 105.861,113.125 104.833,113.51 84.946,114.281 73.7769,116.822 55.4358,124.417 47.4577,122.5 45.2721,115.242 46.569,110.928 38.7232,115.869 31.8976,116.575 29.0726,122.481 L 25.6474,107.909 C 26.6908,104.683 12.5639,107.517 8.87718,106.37 12.9782,103.765 20.9045,93.7766 20.9045,93.7766 20.9045,93.7766 15.734,86.9918 14.1579,85.7063 22.1191,82.753 27.6614,82.0508 36.0076,81.152 34.7948,78.7163 25.0453,72.0296 30.3579,70.366 40.6302,65.1014 51.9299,62.9185 62.9728,60.3504 Z M 119.856,87.3155 C 123.837,86.6734 122.039,91.1676 120.628,92.5801 118.315,93.3505 115.619,90.654 115.106,88.3427 116.004,86.8019 118.701,87.7007 120.241,87.187 Z" />
</svg>
