<svg width="24" height="24" viewBox="0 0 24 24" xmlns="http://www.w3.org/2000/svg" fill="currentColor">
	<path d="M 136.144,-4.87784 A 132.292,132.292 0 0 0 3.85125,127.414 132.292,132.292 0 0 0 136.144,259.705 132.292,132.292 0 0 0 268.434,127.414 132.292,132.292 0 0 0 136.144,-4.87784 Z M 136.144,9.73454 A 117.679,117.679 0 0 1 253.823,127.414 117.679,117.679 0 0 1 136.144,245.094 117.679,117.679 0 0 1 18.4636,127.414 117.679,117.679 0 0 1 136.144,9.73454 Z" /><path d="M 133.978,253.949 C 92.099,251.473 23.7504,222.392 12.8106,148.671 12.8106,148.671 29.2739,156.973 42.4216,150.114 50.6178,145.414 58.3298,139.845 66.9364,135.894 69.5457,134.867 62.9575,134.634 61.8447,134.007 56.1336,132.595 50.8947,129.819 45.4234,127.745 49.2896,126.522 52.9404,124.328 56.2583,121.953 64.3359,115.336 71.6557,107.627 77.2747,98.8059 78.6026,96.6854 85.4317,90.9938 79.1547,91.546 76.3177,90.9449 71.5117,92.3907 70.0217,90.1491 72.2396,87.0162 75.7477,85.295 78.8376,83.1474 84.9986,79.5652 92.2906,77.1481 96.8246,71.3755 100.536,66.2618 101.758,59.9679 103.029,53.9237 105.463,46.1264 108.396,38.089 114.258,32.1736 120.242,26.0997 126.955,22.5877 135.106,17.7312 134.93,27.9118 137.598,40.064 137.598,40.064 141.929,36.5223 146.033,34.3125 150.254,30.6043 150.15,45.6028 152.974,62.036 156.61,70.2028 164.778,76.4549 173.349,82.1948 181.675,88.2453 184.772,90.6289 188.471,92.3602 191.148,95.2101 191.412,98.07 187.206,103.88 191.859,104.362 202.109,107.7 212.692,109.921 223.116,112.656 229.989,114.354 236.845,116.118 243.72,117.816 247.887,120.155 243.586,125.509 242.655,128.851 238.884,137.299 234.373,145.441 230.43,153.769 229.959,156.911 229.989,160.101 229.787,163.267 219.108,163.355 208.409,164.12 197.838,165.634 187.606,167.149 177.602,169.866 167.898,173.418 168.115,182.038 168.262,190.713 170.27,199.151 171.639,206.278 174.583,213.17 179.483,218.594 180.53,220.541 175.254,217.948 173.801,218.435 169.315,218.009 164.792,217.942 160.307,218.421 158.129,225.757 154.384,232.811 148.826,238.126 143.319,245.623 150.007,253.745 150.007,253.745 144.667,254.001 139.323,254.273 133.978,253.949 Z M 129.443,236.532 C 126.272,233.088 123.34,229.389 120.389,225.745 111.131,214.602 102.003,203.343 92.8066,192.143 87.9487,185.484 82.2117,179.458 77.6146,172.629 76.9926,175.67 77.2447,181.503 77.0037,185.563 76.5347,198.618 76.5737,211.692 76.7657,224.749 82.5507,226.041 88.4956,226.868 94.2966,228.218 103.027,229.893 111.714,231.805 120.356,233.899 123.368,234.516 126.576,236.636 129.443,236.532 Z M 127.498,226.099 C 129.762,219.144 131.508,211.915 132.988,204.719 133.571,204.013 132.903,198.841 134.096,201.374 136.828,205.736 139.29,210.417 143.108,213.932 146.644,213.312 149.565,209.919 152.931,208.347 155.372,205.404 162.749,206.38 160.22,200.979 158.216,189.439 158.233,177.672 157.138,166.038 159.567,163.535 163.615,162.437 166.805,160.802 175.995,157.459 185.688,155.722 195.382,154.652 202.952,154.004 210.542,153.43 218.09,152.57 221.718,151.373 212.801,150.68 211.154,150.376 201.574,149.712 191.909,150.115 182.521,152.239 177.487,153.266 172.511,154.612 167.423,155.357 168.52,152.383 172.437,150.992 175.122,149.426 186.965,144.555 200.035,144.726 212.611,145.268 216.709,145.419 220.771,146.038 224.855,146.339 226.714,142.766 228.209,138.953 229.209,135.049 226.384,131.133 222.543,128.028 219.758,124.049 217.995,119.798 212.877,120.338 209.186,118.97 198.836,116.45 188.495,113.814 178.442,110.275 174.31,110.129 170.226,111.351 166.086,111.546 162.531,111.732 158.847,112.612 155.359,112.136 151.888,109.472 147.861,107.395 143.759,105.862 149.857,104.141 156.163,102.733 161.863,99.8515 165.621,99.8649 169.07,102.482 172.678,103.619 174.67,104.649 178.233,107.343 177.41,102.92 179.414,98.6136 172.175,97.3122 169.936,94.5785 167.706,92.8976 165.349,91.3941 163.036,89.8284 149.336,92.7396 135.341,95.5089 122.924,102.303 118.829,103.984 125.703,107.526 126.805,109.888 127.728,111.399 131.3,113.726 130.982,114.589 120.198,115.467 109.168,116.316 99.0416,120.383 96.5526,121.854 92.2626,122.418 90.9835,124.789 94.2786,126.122 98.5674,125.267 101.404,127.385 97.82,128.797 93.6286,128.787 90.0676,130.569 85.9227,132.152 82.1387,134.511 78.5557,137.092 76.0707,138.405 72.0917,142.551 72.2276,144.43 75.2126,142.174 78.4686,140.545 82.2587,139.985 89.7106,138.278 97.491,138.253 105.041,139.216 106.327,141.835 103.39,146.102 102.891,149.294 99.7998,158.909 97.2198,168.701 93.7546,178.189 90.9385,182.472 97.445,177.765 99.2596,178.015 102.821,177.278 106.229,175.14 109.774,174.99 112.034,181.135 113.583,187.595 115.719,193.814 118.711,203.179 121.734,212.529 124.54,221.952 125.24,222.835 126.484,230.367 127.498,226.099 Z M 144.999,190.476 C 141.118,183.381 138.862,175.528 136.485,167.851 136.073,160.619 140.054,153.889 144.652,148.608 147.114,147.79 145.394,154.048 145.865,155.829 145.156,163.095 145.064,170.423 146.068,177.67 146.405,182.621 146.923,187.648 146.121,192.581 145.746,191.881 145.373,191.178 144.999,190.476 Z M 232.527,127.555 C 233.556,125.067 236.032,121.324 231.233,121.807 228.313,122.102 223.155,121.337 226.539,125.59 227.776,127.146 231.567,129.876 232.527,127.555 Z M 142.545,68.2452 C 134.748,61.8888 129.55,51.7264 128.325,36.4343 127.964,31.9282 123.566,37.4757 122.435,38.7828 118.864,42.9125 117.084,46.7436 115.617,52.0715 113.848,57.6578 113.438,61.2592 112.2,66.9572 111.755,69.0119 108.77,74.6724 114.07,73.2365 123.377,70.7148 133.049,69.8883 142.545,68.2452 Z" style="fill:#000000;stroke-width:1.22426" id="path1-5" />
</svg>
