<svg class="needs-cleanup" width="1000" height="1000" viewBox="0 0 264.583 264.583" version="1.1" id="svg1" xml:space="preserve" inkscape:version="1.3 (0e150ed6c4, 2023-07-21)" sodipodi:docname="logo-textbelow.svg" xmlns:inkscape="http://www.inkscape.org/namespaces/inkscape" xmlns:sodipodi="http://sodipodi.sourceforge.net/DTD/sodipodi-0.dtd" xmlns="http://www.w3.org/2000/svg" xmlns:svg="http://www.w3.org/2000/svg"><sodipodi:namedview id="namedview1" pagecolor="#ffffff" bordercolor="#666666" borderopacity="1.0" inkscape:showpageshadow="2" inkscape:pageopacity="0.0" inkscape:pagecheckerboard="0" inkscape:deskcolor="#d1d1d1" inkscape:document-units="px" inkscape:zoom="0.372822" inkscape:cx="1107.77" inkscape:cy="363.444" inkscape:current-layer="layer1" /><defs id="defs1" /><g inkscape:label="Layer 1" inkscape:groupmode="layer" id="layer1" transform="matrix(0.999998,0,0,0.999998,-3.8512,4.87784)"><text xml:space="preserve" style="font-size:54.94var(--wp--preset--spacing--50);line-height:1.25;font-family:Inter;-inkscape-font-specification:Inter;display:inline;stroke-width:0.274713" x="41.818" y="257.935" id="text39"><tspan sodipodi:role="line" id="tspan39" style="font-style:normal;font-variant:normal;font-weight:normal;font-stretch:normal;font-size:54.94var(--wp--preset--spacing--50);font-family:Bokor;-inkscape-font-specification:Bokor;stroke-width:0.274713" x="41.818" y="257.935">LONEWOLF</tspan></text><g id="g1" inkscape:label="logo" transform="translate(1.22286e-4)"><path id="path2-1" style="display:inline;fill:#000000;fill-opacity:1;stroke-width:0.549423;stroke-linecap:round;stroke-linejoin:round" d="M 136.144,-4.87784 A 104.458,104.458 0 0 0 31.6857,99.5804 104.458,104.458 0 0 0 136.144,204.036 104.458,104.458 0 0 0 240.6,99.5804 104.458,104.458 0 0 0 136.144,-4.87784 Z M 136.144,6.66056 A 92.9194,92.9194 0 0 1 229.063,99.5804 92.9194,92.9194 0 0 1 136.144,192.499 92.9194,92.9194 0 0 1 43.2237,99.5804 92.9194,92.9194 0 0 1 136.144,6.66056 Z" /><path d="M 134.434,199.491 C 101.366,197.536 47.3967,174.574 38.7607,116.364 38.7607,116.364 51.7587,122.92 62.1407,117.504 68.6117,113.793 74.7027,109.395 81.4977,106.276 83.5577,105.465 78.3557,105.281 77.4767,104.786 72.9687,103.671 68.8317,101.479 64.5097,99.8418 67.5637,98.8761 70.4457,97.1437 73.0667,95.2684 79.4447,90.0436 85.2247,83.9566 89.6617,76.9914 90.7097,75.3171 96.1017,70.8231 91.1447,71.259 88.9057,70.7845 85.1097,71.9262 83.9337,70.156 85.6857,67.6822 88.4547,66.3233 90.8947,64.6272 95.7597,61.7988 101.517,59.8904 105.098,55.332 108.028,51.2948 108.993,46.325 109.996,41.5527 111.918,35.3954 114.234,29.0494 118.863,24.3789 123.588,19.5828 128.888,16.8098 135.324,12.9747 135.186,21.0136 137.292,30.6088 137.292,30.6088 140.712,27.8121 143.952,26.0678 147.285,23.1392 147.203,34.9824 149.433,47.9579 152.304,54.4066 158.753,59.3432 165.521,63.8755 172.095,68.6526 174.541,70.535 177.461,71.9017 179.575,74.1522 179.784,76.4104 176.463,80.9979 180.137,81.3785 188.23,84.0142 196.586,85.7679 204.817,87.9275 210.244,89.2682 215.658,90.6611 221.086,92.0019 224.376,93.8487 220.98,98.0762 220.245,100.715 217.268,107.385 213.706,113.814 210.592,120.39 210.22,122.871 210.244,125.39 210.085,127.889 201.652,127.959 193.205,128.563 184.858,129.758 176.778,130.955 168.879,133.1 161.217,135.905 161.388,142.711 161.504,149.561 163.09,156.224 164.171,161.851 166.495,167.292 170.365,171.575 171.191,173.112 167.025,171.065 165.878,171.45 162.336,171.113 158.765,171.06 155.223,171.439 153.503,177.231 150.546,182.8 146.158,186.997 141.809,192.917 147.09,199.33 147.09,199.33 142.874,199.532 138.654,199.747 134.434,199.491 Z M 130.853,185.739 C 128.349,183.019 126.034,180.099 123.704,177.222 116.394,168.423 109.186,159.534 101.926,150.69 98.0897,145.432 93.5597,140.674 89.9297,135.282 89.4377,137.683 89.6377,142.289 89.4467,145.495 89.0767,155.803 89.1077,166.125 89.2587,176.435 93.8277,177.455 98.5217,178.108 103.101,179.174 109.995,180.497 116.854,182.006 123.678,183.66 126.056,184.147 128.589,185.821 130.853,185.739 Z M 129.317,177.501 C 131.105,172.009 132.483,166.301 133.652,160.62 134.112,160.063 133.585,155.979 134.527,157.979 136.684,161.423 138.628,165.119 141.643,167.894 144.435,167.404 146.741,164.726 149.399,163.485 151.327,161.161 157.151,161.932 155.155,157.667 153.572,148.555 153.586,139.264 152.721,130.077 154.639,128.101 157.835,127.234 160.354,125.943 167.61,123.303 175.264,121.932 182.918,121.087 188.896,120.575 194.889,120.122 200.849,119.443 203.713,118.498 196.672,117.951 195.372,117.711 187.808,117.186 180.176,117.505 172.763,119.182 168.788,119.993 164.859,121.055 160.842,121.644 161.708,119.295 164.801,118.197 166.921,116.961 176.272,113.114 186.592,113.249 196.522,113.677 199.758,113.797 202.966,114.285 206.19,114.523 207.658,111.702 208.839,108.691 209.628,105.608 207.398,102.516 204.365,100.065 202.166,96.9234 200.774,93.5668 196.732,93.9932 193.818,92.913 185.646,90.9233 177.48,88.8418 169.543,86.0474 166.28,85.9322 163.055,86.897 159.786,87.051 156.979,87.1979 154.07,87.8927 151.316,87.5169 148.576,85.4134 145.396,83.7734 142.157,82.5629 146.972,81.204 151.951,80.0923 156.452,77.817 159.419,77.8276 162.142,79.8941 164.991,80.7919 166.564,81.6051 169.378,83.7323 168.728,80.2399 170.31,76.8396 164.594,75.812 162.826,73.6531 161.065,72.3265 159.204,71.139 157.378,69.9025 146.56,72.2018 135.51,74.3881 125.705,79.7527 122.472,81.0801 127.9,83.8768 128.77,85.7419 129.499,86.9349 132.319,88.7723 132.068,89.4538 123.553,90.147 114.844,90.8174 106.848,94.0288 104.883,95.1903 101.496,95.6356 100.486,97.5077 103.088,98.5603 106.474,97.8852 108.713,99.5575 105.884,100.672 102.574,100.664 99.7627,102.071 96.4887,103.321 93.5017,105.184 90.6727,107.222 88.7097,108.258 85.5687,111.532 85.6767,113.016 88.0327,111.234 90.6037,109.948 93.5967,109.506 99.4807,108.158 105.623,108.138 111.585,108.899 112.6,110.967 110.281,114.336 109.887,116.856 107.447,124.448 105.409,132.18 102.674,139.672 100.45,143.054 105.588,139.337 107.021,139.534 109.832,138.953 112.523,137.264 115.322,137.146 117.107,141.998 118.33,147.099 120.016,152.01 122.379,159.404 124.766,166.786 126.981,174.227 127.534,174.924 128.516,180.871 129.317,177.501 Z M 143.136,149.374 C 140.072,143.772 138.29,137.571 136.413,131.509 136.088,125.799 139.231,120.485 142.862,116.315 144.806,115.669 143.448,120.61 143.82,122.016 143.26,127.754 143.187,133.54 143.98,139.262 144.246,143.172 144.655,147.141 144.022,151.036 143.726,150.483 143.431,149.928 143.136,149.374 Z M 212.248,99.6918 C 213.061,97.7272 215.016,94.7718 211.226,95.1531 208.921,95.3861 204.848,94.782 207.52,98.1402 208.497,99.3688 211.49,101.524 212.248,99.6918 Z M 141.198,52.8606 C 135.042,47.8419 130.937,39.8171 129.97,27.7426 129.685,24.1846 126.212,28.5653 125.319,29.5973 122.5,32.8584 121.094,35.8834 119.936,40.0903 118.539,44.5011 118.215,47.3444 117.238,51.8436 116.886,53.4662 114.529,57.9353 118.714,56.8023 126.063,54.8109 133.7,54.1579 141.198,52.8606 Z" style="display:inline;fill:#000000;stroke-width:0.966676" id="path1-5-5" sodipodi:nodetypes="cccccccccccccccccccccccccccccccccccccccccccccccccccccccccccccccccccccccccccccccccccccccccccccccccsssscsscssc" /></g></g></svg>
