<svg xmlns="http://www.w3.org/2000/svg" viewBox="0 0 132 132"><path fill="#000" d="M60.7 121.5s5.3 7.9 7 6.4c2.9-3.3 6.9-2 8.1-6.1 9.8-1 12.5 1.2 12.5.2-.2-3-7-2.7-7.1-11.2-.5-3.1-.5-6.2-.6-9.1 8.9-3.4 18.2-5.4 27.7-6.2 4.2-.3 8.5-.5 12.7-.5.3-2.4 0-5 .8-7 2.9-6 6.2-11.9 8.8-18.1 1.1-1.7 1-5-1.7-5l-28.3-7c-2-.9-4.3-.9-5.7-2.2-.7-2.3 2.3-5.3-.6-6.5-5.8-4-11.6-8-17.3-12.2-1.3-1.3-3.7-2-4.2-4A80.9 80.9 0 0 1 69 9.3c.2-2-1.8 1.1-2.7 1.4l-5.5 4A78 78 0 0 1 59.4 0c-6 3.5-12.9 7-16.7 13a51 51 0 0 0-5.3 14.4c-.9 4-2.6 8.2-6.3 10.5-3.7 2.7-8 4-11.6 6.9-1.2.5-4 2.8-1.2 3.1 2 .6 4.8-.8 6.2.8-.6 2.2-2.6 3.3-3.7 5.3A62.7 62.7 0 0 1 7 68.5a20 20 0 0 1-6.3 3.3c4.6 1.7 9.1 4 14 4.7C9 80 10 86.6 7.8 91.3l20-3.7-3 26.6 14.4-7.8L50.7 132l7.5-2.3ZM54.2 11.1c1.3 2 .8 5.3 1.6 7.6A25.3 25.3 0 0 0 64.1 33c-6.3 1.2-13 1.7-19.2 3.5-3-.2-.2-4-.2-5.7 1-4.8 1.8-10 4.3-14.3 1.3-1.9 2.6-3.7 4.4-5.2h.4ZM77.5 47c2 1.3 4 2.7 5.8 4.2 1.5 1.2 4.2 1.8 3.8 4.2.3 1.4-.8 2.5-2.2 1.3-2.6-1.2-5-2.6-7.8-3-2.3.7-4.5 1.8-6.8 2.3-1.6.7-4.5 1.1-5.2 1.6a35 35 0 0 1 7.4 4c2.9.3 6-.3 8.8-.5 2.3-.2 4.5-.9 6.5-.6 7.3 2.7 15 4.5 22.5 6.3 2 .2 3.9 1.5 4.7 3.4 1.8 2.3 3.9 4 5.7 6.5a34 34 0 0 1-2.8 7.2c-5.5-.6-11-.8-16.6-.8-6.7 0-13.9 1-19.5 5-.9.5-2.1 2.3-.2 1.5 6.2-1.2 12.4-3 18.8-3 4.5-.2 8.8-.4 13.1.9.8 1-2.6.6-3.4.9-8.1.8-16.4 1.1-24.4 3.3-3.9 1-7.7 2.2-11.1 4.3-2 1.3 0 4.4-.5 6.5.4 5.6.6 2.3 1.5 8 1.4 2.4-1.5 3.3-3.2 3.9-2.5 1.4-4.5 3.2-7 4.3-2 .5-3-2.6-4.2-3.9-1.2-1-2-4.2-3-4.2-1 5.2-2.3 9.8-4.5 14.4-3.1-3.4-8.2-23.6-12.2-26-1.8-.3-7.2 3-9.2 3.8 1.7-3.5 2.2-4.7 3.4-8.3 1.4-4.3 2.4-8.6 4-13 1.3-3.5-3.5-2.2-5.7-2.6-4.2 0-8.7.4-12.6 2-1.1.3-2.6 1.7-3.2 1.6 1.2-3 4.3-4.6 6.8-6.4a28 28 0 0 1 10.5-4c1.1 0 2.6-.7.7-1.1-1.6-.8-4.8 0-5.5-1.4 1.7-1.7 4.3-2 6.3-3 6.2-2.3 13-2.7 19.5-3.4-.9-1.6-2.7-2.8-3.8-4.4-1.5-1.1-3.5-3.4-.6-4 8-4.1 16.8-5.8 25.4-7.8Zm44.3 21c3.1-.5 1.7 3 .6 4.1-1.8.6-3.9-1.5-4.3-3.3.7-1.2 2.8-.5 4-.9ZM65.6 85.2c-3 3.7-5.7 8-5.2 12.9 1.7 5.3 2.2 5.4 5 10.4 1-6.6 0-7.7.7-14.2 0-2.6.4-5.3.4-8 0-.6-.3-1.4-.9-1Z"/></svg>
